<svg width="384" height="383" xmlns="http://www.w3.org/2000/svg" xmlns:xlink="http://www.w3.org/1999/xlink" overflow="hidden"><g transform="translate(-419 -124)"><path d="M484.001 506.5C448.931 506.5 420.5 478.07 420.5 442.999L420.5 189.001C420.5 153.931 448.931 125.5 484.001 125.5L737.999 125.5C773.07 125.5 801.5 153.931 801.5 189.001L801.5 442.999C801.5 478.07 773.07 506.5 737.999 506.5Z" stroke="#FFEFF1" stroke-width="1.33333" stroke-miterlimit="8" fill="#FFEFF1" fill-rule="evenodd"/><path d="M611 184.5C647.313 184.5 680.188 199.219 703.985 223.015L707.319 227.057 659.527 227.057 650.609 222.215C638.434 217.064 625.05 214.216 611 214.216 554.801 214.216 509.243 259.786 509.243 316 509.243 372.214 554.801 417.784 611 417.784 667.199 417.784 712.757 372.214 712.757 316 712.757 305.46 711.155 295.294 708.182 285.733L706.641 281.821 709.411 281.821 709.411 273.85 713.862 273.85 713.862 264.42 709.411 264.42 709.411 254.293 727.098 254.293 732.166 264.814C738.821 280.547 742.5 297.844 742.5 316 742.5 388.625 683.626 447.5 611 447.5 538.375 447.5 479.5 388.625 479.5 316 479.5 243.375 538.375 184.5 611 184.5Z" stroke="#531547" stroke-width="1.33333" stroke-miterlimit="8" fill="#531547" fill-rule="evenodd"/><path d="M658.5 254.5 659.5 254.5 658.5 255.5 658.5 254.5Z" stroke="#531547" stroke-width="1.33333" stroke-miterlimit="8" fill="#531547" fill-rule="evenodd"/><path d="M658.5 254.5 691.422 254.5 695.413 259.238 698.5 264.5 685.684 264.5 682.595 261.854C675.433 257.164 667.224 254.5 658.5 254.5Z" stroke="#531547" stroke-width="1.33333" stroke-miterlimit="8" fill="#531547" fill-rule="evenodd"/><path d="M695.5 273.5 703.544 273.5 706.5 281.5 700.701 281.5 700.568 281.177 695.5 273.5Z" stroke="#531547" stroke-width="1.33333" stroke-miterlimit="8" fill="#531547" fill-rule="evenodd"/><path d="M703.5 273.5 709.5 273.5 709.5 281.5 706.688 281.5 703.5 273.5Z" stroke="#531547" stroke-width="1.33333" stroke-miterlimit="8" fill="#531547" fill-rule="evenodd"/><path d="M658.5 254.5 724.142 254.5 727.355 259.207 729.842 264.433 718.503 264.433 718.503 273.682 733.951 273.682 736.5 281.5 709.574 281.5 709.574 273.683 703.655 273.683 706.8 281.5 706.8 281.5 703.655 273.682 695.098 273.682 695.098 273.682 708.762 273.682 708.762 264.433 698.585 264.433 695.518 259.207 691.553 254.5 658.846 254.5 658.5 254.5 658.5 254.5Z" stroke="#531547" stroke-width="1.33333" stroke-miterlimit="8" fill="#531547" fill-rule="evenodd"/><path d="M610.734 254.5 658.433 254.5 658.433 254.543 658.777 254.5C667.403 254.5 675.518 257.189 682.6 261.923L685.654 264.593 698.325 264.593 698.325 264.594 684.403 264.594 684.403 273.992 694.855 273.992 700.22 281.615 700.361 281.935 706.5 281.935 706.5 281.935 662.461 281.935 662.534 282.069 612.48 282.069 611.159 281.935C592.406 281.935 577.205 297.187 577.205 316 577.205 334.813 592.406 350.065 611.159 350.065 629.911 350.065 645.113 334.813 645.113 316L644.431 309.214 672.132 309.214 672.818 316C672.818 349.966 645.212 377.5 611.159 377.5 577.106 377.5 549.5 349.966 549.5 316 549.5 286.28 570.635 261.484 598.732 255.75L610.734 254.543 610.734 254.5ZM601.256 264.594 601.256 273.992 610.734 273.992 630.551 273.992 630.551 264.594 610.734 264.594 601.256 264.594ZM643.15 264.594 643.15 273.992 655.668 273.992 672.445 273.992 672.445 264.594 644.317 264.594 643.15 264.594Z" stroke="#531547" stroke-width="1.33333" stroke-miterlimit="8" fill="#531547" fill-rule="evenodd"/></g></svg>