<svg width="88" height="87" xmlns="http://www.w3.org/2000/svg" xmlns:xlink="http://www.w3.org/1999/xlink" overflow="hidden"><g transform="translate(-61 -63)"><path d="M106 65.5001C117.736 65.5001 128.361 70.2011 136.052 77.8015L137.13 79.0923 121.684 79.0923 118.801 77.5458C114.867 75.9007 110.541 74.9911 106 74.9911 87.8369 74.9911 73.1128 89.5458 73.1128 107.5 73.1128 125.454 87.8369 140.009 106 140.009 124.163 140.009 138.887 125.454 138.887 107.5 138.887 104.134 138.37 100.887 137.409 97.8329L136.911 96.5834 137.806 96.5834 137.806 94.0377 139.244 94.0377 139.244 91.026 137.806 91.026 137.806 87.7913 143.522 87.7913 145.16 91.1518C147.311 96.1766 148.5 101.701 148.5 107.5 148.5 130.696 129.472 149.5 106 149.5 82.5279 149.5 63.5001 130.696 63.5001 107.5 63.5001 84.3041 82.5279 65.5001 106 65.5001Z" stroke="#591036" stroke-width="1.33333" stroke-miterlimit="8" fill="#591036" fill-rule="evenodd"/><path d="M121.5 87.5001 122.5 87.5001 121.5 88.5001 121.5 87.5001Z" stroke="#591036" stroke-width="1.33333" stroke-miterlimit="8" fill="#591036" fill-rule="evenodd"/><path d="M121.5 87.5001 132.2 87.5001 133.497 88.9216 134.5 90.5001 130.335 90.5001 129.331 89.7063C127.003 88.2993 124.335 87.5001 121.5 87.5001Z" stroke="#591036" stroke-width="1.33333" stroke-miterlimit="8" fill="#591036" fill-rule="evenodd"/><path d="M132.5 93.5001 135.425 93.5001 136.5 96.5001 134.391 96.5001 134.343 96.3791 132.5 93.5001Z" stroke="#591036" stroke-width="1.33333" stroke-miterlimit="8" fill="#591036" fill-rule="evenodd"/><path d="M135.5 93.5001 137.5 93.5001 137.5 96.5001 136.563 96.5001 135.5 93.5001Z" stroke="#591036" stroke-width="1.33333" stroke-miterlimit="8" fill="#591036" fill-rule="evenodd"/><path d="M121.5 87.5001 142.539 87.5001 143.569 89.069 144.366 90.8112 140.732 90.8112 140.732 93.8941 145.683 93.8941 146.5 96.5001 137.87 96.5001 137.87 93.8942 135.973 93.8942 136.981 96.5001 136.981 96.5001 135.973 93.8942 133.23 93.8942 133.23 93.8941 137.61 93.8941 137.61 90.8112 134.348 90.8112 133.365 89.069 132.094 87.5001 121.611 87.5001 121.5 87.5001 121.5 87.5001Z" stroke="#591036" stroke-width="1.33333" stroke-miterlimit="8" fill="#591036" fill-rule="evenodd"/><path d="M105.391 87.5001 120.886 87.5001 120.886 87.5139 120.998 87.5001C123.8 87.5001 126.436 88.3745 128.736 89.9139L129.728 90.7825 133.844 90.7825 133.844 90.7825 129.322 90.7825 129.322 93.8387 132.717 93.8387 134.46 96.3179 134.506 96.422 136.5 96.422 136.5 96.4221 122.195 96.4221 122.218 96.4656 105.958 96.4656 105.529 96.4221C99.4378 96.4221 94.4996 101.382 94.4996 107.5 94.4996 113.618 99.4378 118.578 105.529 118.578 111.621 118.578 116.559 113.618 116.559 107.5L116.337 105.293 125.336 105.293 125.559 107.5C125.559 118.546 116.591 127.5 105.529 127.5 94.4675 127.5 85.5001 118.546 85.5001 107.5 85.5001 97.8351 92.3657 89.7713 101.493 87.9064L105.391 87.514 105.391 87.5001ZM102.313 90.7825 102.313 93.8387 105.391 93.8387 111.829 93.8387 111.829 90.7825 105.391 90.7825 102.313 90.7825ZM115.921 90.7825 115.921 93.8387 119.988 93.8387 125.437 93.8387 125.437 90.7825 116.3 90.7825 115.921 90.7825Z" stroke="#591036" stroke-width="1.33333" stroke-miterlimit="8" fill="#591036" fill-rule="evenodd"/></g></svg>